0
SECTION
2
HEADER
9
$INSUNITS
70
4
9
$ACADVER
1
AC1014
9
$HANDSEED
5
FFFF
0
ENDSEC
0
SECTION
2
TABLES
0
TABLE
2
VPORT
5
8
100
AcDbSymbolTable
0
ENDTAB
0
TABLE
2
LTYPE
5
5
100
AcDbSymbolTable
0
LTYPE
5
14
100
AcDbSymbolTableRecord
100
AcDbLinetypeTableRecord
2
BYBLOCK
70
0
0
LTYPE
5
15
100
AcDbSymbolTableRecord
100
AcDbLinetypeTableRecord
2
BYLAYER
70
0
0
ENDTAB
0
TABLE
2
LAYER
5
2
100
AcDbSymbolTable
70
2
0
LAYER
5
50
100
AcDbSymbolTableRecord
100
AcDbLayerTableRecord
2
0
70
0
6
CONTINUOUS
0
ENDTAB
0
TABLE
2
STYLE
5
3
100
AcDbSymbolTable
70
1
0
STYLE
5
11
100
AcDbSymbolTableRecord
100
AcDbTextStyleTableRecord
2
STANDARD
70
0
0
ENDTAB
0
TABLE
2
VIEW
5
6
100
AcDbSymbolTable
70
0
0
ENDTAB
0
TABLE
2
UCS
5
7
100
AcDbSymbolTable
70
0
0
ENDTAB
0
TABLE
2
APPID
5
9
100
AcDbSymbolTable
70
2
0
APPID
5
12
100
AcDbSymbolTableRecord
100
AcDbRegAppTableRecord
2
ACAD
70
0
0
ENDTAB
0
TABLE
2
DIMSTYLE
5
A
100
AcDbSymbolTable
70
1
0
ENDTAB
0
TABLE
2
BLOCK_RECORD
5
1
100
AcDbSymbolTable
70
1
0
BLOCK_RECORD
5
1F
100
AcDbSymbolTableRecord
100
AcDbBlockTableRecord
2
*MODEL_SPACE
0
BLOCK_RECORD
5
1B
100
AcDbSymbolTableRecord
100
AcDbBlockTableRecord
2
*PAPER_SPACE
0
ENDTAB
0
ENDSEC
0
SECTION
2
BLOCKS
0
BLOCK
5
20
100
AcDbEntity
100
AcDbBlockBegin
2
*MODEL_SPACE
0
ENDBLK
5
21
100
AcDbEntity
100
AcDbBlockEnd
0
BLOCK
5
1C
100
AcDbEntity
100
AcDbBlockBegin
2
*PAPER_SPACE
0
ENDBLK
5
1D
100
AcDbEntity
100
AcDbBlockEnd
0
ENDSEC
0
SECTION
2
ENTITIES
0
LWPOLYLINE
5
100
100
AcDbEntity
8
0
100
AcDbPolyline
90
107
70
1
43
0.0
10
1.2313267081117374
20
7.9657960438485542
10
0.63732453874109751
20
8.942857589697395
10
0.32682727566713865
20
10.22873349239485
10
-0.7093013406658244
20
11.281734034916324
10
-1.0704211951160936
20
12.462984323253799
10
-1.8686146617793931
20
13.355672044804269
10
-2.2466121197605204
20
14.53523303990619
10
-3.5054844529295259
20
15.571358817567988
10
-3.5831118912363102
20
15.849796695759455
10
-3.5324904353285014
20
16.188983273258376
10
-3.5679284066820216
20
16.892671698084037
10
-4.3998634547853577
20
18.421545946350264
10
-4.7778631837034347
20
19.682108992090392
10
-5.7599889189863873
20
20.934234371533563
10
-6.4484847755098329
20
22.270735278477829
10
-7.7107373983526273
20
23.359172656884361
10
-8.3249895126486173
20
24.530297121157815
10
-9.6766761750841468
20
25.41623277937429
10
-10.753300139393822
20
26.344359040012527
10
-12.474549999918967
20
27.068297409763503
10
-12.920051059212714
20
27.532361107816854
10
-13.184985378470433
20
27.92723389839189
10
-13.687861660208771
20
28.301861285915535
10
-14.300421926465017
20
28.581983631601492
10
-15.4580479414129
20
28.853673988332915
10
-17.199552288737259
20
29.683921730270555
10
-18.235674092259408
20
29.99273509358423
10
-19.339297226157193
20
30.190172624340224
10
-18.348739501919731
20
28.860420942058731
10
-15.972737637248056
20
25.367297494163683
10
-13.6102410347128
20
21.153609153380557
10
-11.347297766890527
20
16.386420804014364
10
-9.2733600408697114
20
11.23954740663426
10
-8.1444250435495391
20
8.1007956530283476
10
-7.6854255349302569
20
6.4318597351516971
10
-7.6887978763246601
20
5.9812946993242244
10
-7.8373012573385026
20
5.6961095125730399
10
-8.5376150698328424
20
5.356922367339898
10
-11.737115451779374
20
4.4304844064022708
10
-14.531612393345856
20
3.8854206447805684
10
-15.888363245215427
20
3.7436710303033971
10
-12.675364413943306
20
0.56273470645205492
10
-11.651046940770158
20
-0.1915785806868886
10
-10.591300579991376
20
-0.61007990265830259
10
-7.9436129004621492
20
-1.1635787757728799
10
-7.1234867245817135
20
-1.7137041720245616
10
-6.7691138238573423
20
-2.1322026553247753
10
-6.6222977490091317
20
-2.5338292124365225
10
-6.8416748017931184
20
-4.0340169849489627
10
-7.1454262466096807
20
-7.7414555671308971
10
-7.6719248146677366
20
-22.004204625139067
10
-7.8997361273431999
20
-24.783515811214293
10
-8.2304844708108682
20
-27.269201660404036
10
-8.6894885213041206
20
-29.626638615379193
10
-9.3037360937261404
20
-32.024577731141918
10
-11.111047652449599
20
-37.633832913884959
10
-12.128611359086019
20
-41.056080419072927
10
-7.8069229335451418
20
-38.68514047289829
10
-6.283110603775981
20
-36.785015720376819
10
-4.6293598026895744
20
-35.284825676927404
10
-3.716422703948048
20
-33.632764452943668
10
-2.511547574486741
20
-32.14101775313361
10
-1.8584885538482787
20
-30.652643394718019
10
-1.0130516500139564
20
-29.473077857742158
10
-0.39205258199213944
20
-27.999896067628711
10
0.64070369294640273
20
-26.368075704822395
10
0.77401337018963901
20
-24.845959764966807
10
1.4928864150381038
20
-23.701827657470549
10
1.7713259964322958
20
-22.161139995107504
10
2.4075108199453155
20
-21.099701786289053
10
2.3973858474827026
20
-19.370015394935464
10
2.8428857713079125
20
-18.25626615310653
10
2.9981406479215522
20
-17.328143298873748
10
3.1668871610498606
20
-14.837388718375992
10
3.3407012700176253
20
-13.738827502975317
10
3.8300779669618557
20
-12.253830027828068
10
3.9380757807826683
20
-11.428641933450541
10
3.9296369790172569
20
-10.647327205786548
10
3.7895735352373094
20
-10.114080548534234
10
3.8148853986596976
20
-9.6584545167778213
10
4.3903226583337585
20
-7.9962660493944338
10
4.0680131166315014
20
-6.1096408816669801
10
4.3937018125390992
20
-4.8406424405668513
10
4.3835757046079493
20
-4.1470778527353502
10
4.2131362079715551
20
-3.3826418640707434
10
11.989138620260942
20
-1.8267656075452265
10
29.638706579718583
20
-6.1687034102772031
10
32.883764228138936
20
-6.8335803868864353
10
32.981635934028631
20
-6.7306410851572451
10
27.313321629080782
20
-4.7967656674478754
10
23.499581622991546
20
-3.3573277297113702
10
20.208948824468855
20
-1.9972028332446357
10
17.843073493528969
20
-0.89189239318115732
10
16.795138063009656
20
-0.21520313794357371
10
16.705698133174156
20
-0.0025787162278501086
10
16.822135866487233
20
0.19485938226239341
10
18.231203872252078
20
0.68085919593827704
10
31.776767617378248
20
3.3876079847420915
10
20.188696608606556
20
2.7834851009156036
10
12.96113938308121
20
2.4831077006961522
10
11.238201932523229
20
2.5168586497511081
10
10.293199771556854
20
2.6704202589894965
10
8.3390727057195058
20
3.4871718225385351
10
5.2593909322357035
20
4.9620461703594154
10
2.1847614257669079
20
6.6191701999250219
10
1.5468892960881853
20
7.1051721426043102
10
1.3578905670976482
20
7.4494212773013269
0
ENDSEC
0
SECTION
2
OBJECTS
0
DICTIONARY
5
C
100
AcDbDictionary
3
ACAD_GROUP
350
D
3
ACAD_MLINESTYLE
350
17
0
DICTIONARY
5
D
100
AcDbDictionary
0
DICTIONARY
5
1A
330
C
100
AcDbDictionary
0
DICTIONARY
5
17
100
AcDbDictionary
0
ENDSEC
0
EOF
