<?xml version="1.0" encoding="UTF-8" standalone="no"?>
<!-- Created with Inkscape (http://www.inkscape.org/) -->

<svg
   width="21.560137mm"
   height="56.04393mm"
   viewBox="0 0 21.560137 56.043929"
   version="1.1"
   id="svg21090"
   inkscape:version="1.3 (0e150ed, 2023-07-21)"
   sodipodi:docname="scythe_c.svg"
   xmlns:inkscape="http://www.inkscape.org/namespaces/inkscape"
   xmlns:sodipodi="http://sodipodi.sourceforge.net/DTD/sodipodi-0.dtd"
   xmlns="http://www.w3.org/2000/svg"
   xmlns:svg="http://www.w3.org/2000/svg">
  <sodipodi:namedview
     id="namedview21092"
     pagecolor="#ffffff"
     bordercolor="#666666"
     borderopacity="1.0"
     inkscape:pageshadow="2"
     inkscape:pageopacity="0.0"
     inkscape:pagecheckerboard="0"
     inkscape:document-units="mm"
     showgrid="false"
     inkscape:zoom="4.3994184"
     inkscape:cx="152.06555"
     inkscape:cy="134.44959"
     inkscape:window-width="2570"
     inkscape:window-height="1562"
     inkscape:window-x="946"
     inkscape:window-y="270"
     inkscape:window-maximized="0"
     inkscape:current-layer="layer2"
     inkscape:showpageshadow="2"
     inkscape:deskcolor="#d1d1d1" />
  <defs
     id="defs21087" />
  <g
     inkscape:groupmode="layer"
     id="layer2"
     inkscape:label="c"
     style="display:inline">
    <path
       style="display:inline;fill:#000000;fill-opacity:1;stroke:#000000;stroke-width:0.400748px;stroke-linecap:butt;stroke-linejoin:miter;stroke-opacity:1"
       d="m 9.7221693,55.843556 h 4.1636437 l 0.07117,-14.753656 1.758549,-0.148391 2.551548,-0.773867 0.431927,-2.453165 -0.360914,-1.827688 -2.534151,0.601832 -3.504128,-0.06948 L 9.9924596,34.272768 8.4934454,28.974646 8.265857,23.501589 7.6340192,21.11747 7.6908029,21.022459 8.2030736,20.423093 7.7981914,18.000535 7.9359459,17.629631 8.4165861,17.576541 9.519575,11.560689 9.8978864,10.540954 10.85189,8.1510334 12.559353,6.3015863 14.245624,5.1946741 14.195488,4.8052023 11.814433,5.0515052 8.8810923,6.3683115 8.1848842,6.5596386 6.6338382,8.091561 l -1.9399544,3.39515 -1.5198894,7.259406 -0.3156816,8.423325 1.0514282,6.169465 2.0740718,4.447086 3.5375012,2.44185 0.2008593,0.0718 v 15.543915"
       id="path5866"
       sodipodi:nodetypes="cccscsscsssccsscccsssccc" />
  </g>
</svg>
