<?xml version="1.0" encoding="UTF-8" standalone="no"?>
<!-- Created with Inkscape (http://www.inkscape.org/) -->

<svg
   width="210mm"
   height="297mm"
   viewBox="0 0 210 297"
   version="1.1"
   id="svg5"
   inkscape:version="1.3 (0e150ed, 2023-07-21)"
   sodipodi:docname="scythe_logo.svg.2023_09_30_17_29_58.0.svg"
   xmlns:inkscape="http://www.inkscape.org/namespaces/inkscape"
   xmlns:sodipodi="http://sodipodi.sourceforge.net/DTD/sodipodi-0.dtd"
   xmlns="http://www.w3.org/2000/svg"
   xmlns:svg="http://www.w3.org/2000/svg">
  <sodipodi:namedview
     id="namedview7"
     pagecolor="#ffffff"
     bordercolor="#666666"
     borderopacity="1.0"
     inkscape:pageshadow="2"
     inkscape:pageopacity="0.0"
     inkscape:pagecheckerboard="0"
     inkscape:document-units="mm"
     showgrid="false"
     inkscape:zoom="1.1224748"
     inkscape:cx="207.57704"
     inkscape:cy="132.7424"
     inkscape:window-width="3840"
     inkscape:window-height="2081"
     inkscape:window-x="0"
     inkscape:window-y="48"
     inkscape:window-maximized="1"
     inkscape:current-layer="layer3"
     inkscape:showpageshadow="2"
     inkscape:deskcolor="#d1d1d1" />
  <defs
     id="defs2">
    <marker
       id="DistanceX"
       orient="auto"
       refX="0.0"
       refY="0.0"
       style="overflow:visible">
      <path
         d="M 3,-3 L -3,3 M 0,-5 L  0,5"
         style="stroke:#000000; stroke-width:0.5"
         id="path27" />
    </marker>
    <pattern
       id="Hatch"
       patternUnits="userSpaceOnUse"
       width="8"
       height="8"
       x="0"
       y="0">
      <path
         d="M8 4 l-4,4"
         stroke="#000000"
         stroke-width="0.25"
         linecap="square"
         id="path30" />
      <path
         d="M6 2 l-4,4"
         stroke="#000000"
         stroke-width="0.25"
         linecap="square"
         id="path32" />
      <path
         d="M4 0 l-4,4"
         stroke="#000000"
         stroke-width="0.25"
         linecap="square"
         id="path34" />
    </pattern>
    <symbol
       id="*MODEL_SPACE" />
    <symbol
       id="*PAPER_SPACE" />
  </defs>
  <g
     inkscape:groupmode="layer"
     id="layer2"
     inkscape:label="clean"
     style="display:inline">
    <path
       style="fill:none;stroke:#000000;stroke-width:0.264583px;stroke-linecap:butt;stroke-linejoin:miter;stroke-opacity:1"
       d="m 28.1251,11.3611 2.9509,0.0476 -0.6146,1.1586 -0.5353,1.8312 0.2507,1.2424 0.6481,0.9686 1.2941,0.6809 2.6102,-0.0292 0.9188,-0.4365 3.5939,-2.7422 4.0117,-2.6812 3.3009,-0.4963 1.3364,0.1199 2.256,0.9712 1.7952,2.495 0.2109,3.1433 -0.697,1.9076 -2.6709,-0.045 0.9279,-2.54 -1.255,-2.4659 -1.0812,-0.5276 -1.5167,-0.1021 -3.0697,1.4737 -4.527,3.5666 -1.3722,0.814 -2.0311,0.6254 -3.6741,-0.1694 -1.4893,-0.848 -1.4637,-1.5465 -0.7744,-1.8838 -0.1865,-1.7489 0.853,-2.7834"
       id="path5584"
       sodipodi:nodetypes="cccsccsc" />
    <path
       style="fill:none;stroke:#000000;stroke-width:0.264583px;stroke-linecap:butt;stroke-linejoin:miter;stroke-opacity:1"
       d="m 17.129,31.8928 v 2.6326 l 10.1711,0.045 0.1023,1.1119 0.5335,1.6133 1.6912,0.2731 1.26,-0.2282 -0.4149,-1.6023 0.0479,-2.2156 1.4797,-1.4589 3.6525,-0.9478 3.7731,-0.1439 1.6436,-0.3995 0.0655,0.0359 0.4132,0.3239 1.6701,-0.256 0.2557,0.0871 0.0366,0.3039 4.1473,0.6974 0.703,0.2392 1.6476,0.6032 1.275,1.0796 0.7631,1.0662 0.2685,-0.0317 -0.1698,-1.5055 -0.9078,-1.8547 -0.1319,-0.4402 -1.0561,-0.9807 -2.3406,-1.2266 -5.0046,-0.961 -5.807,-0.1996 -4.2532,0.6648 -3.0658,1.3114 -1.6834,2.2367 -0.0495,0.127 H 17.129"
       id="path5866"
       sodipodi:nodetypes="cccscsscsssccsscccsssccc" />
    <path
       style="fill:none;stroke:#000000;stroke-width:0.264583px;stroke-linecap:butt;stroke-linejoin:miter;stroke-opacity:1"
       d="m 27.5721,47.9186 v 3.1803 h 10.436 l 13.902,4.5032 V 52.5144 L 41.0129,49.6093 51.9101,46.6565 v -3.0427 l -13.8586,4.2836 -10.4794,0.0212"
       id="path6642" />
    <path
       style="fill:none;stroke:#000000;stroke-width:0.264583px;stroke-linecap:butt;stroke-linejoin:miter;stroke-opacity:1"
       d="m 27.5721,64.5397 v 3.1777 l 21.5688,-0.0477 0.045,3.5428 h 2.7242 V 61.0419 l -2.6792,-0.045 -0.09,3.5428 -1.784,-0.0556 -19.7848,0.0556"
       id="path6644"
       sodipodi:nodetypes="cccccccccc" />
    <path
       style="fill:none;stroke:#000000;stroke-width:0.264583px;stroke-linecap:butt;stroke-linejoin:miter;stroke-opacity:1"
       d="m 27.6179,78.1155 -0.0458,3.1776 h 12.078 l 0.046,4.8128 h -12.124 v 3.1776 l 24.338,-0.0449 V 86.1059 H 42.465 v -4.8128 h 9.4451 v -3.1326 l -24.2922,-0.045"
       id="path6850" />
    <path
       style="fill:none;stroke:#000000;stroke-width:0.264583px;stroke-linecap:butt;stroke-linejoin:miter;stroke-opacity:1"
       d="m 27.565,97.4115 v 8.3975 l 2.6789,0.048 0.0452,-5.313 h 8.3548 v 4.768 h 2.7241 l 0.046,-4.813 h 7.7269 v 5.175 h 2.7692 V 97.4565 L 27.565,97.4115"
       id="path6852" />
  </g>
  <g
     inkscape:groupmode="layer"
     id="layer3"
     inkscape:label="s"
     style="display:inline" />
  <g
     inkscape:groupmode="layer"
     id="layer4"
     inkscape:label="c"
     style="display:none" />
  <g
     inkscape:groupmode="layer"
     id="layer5"
     inkscape:label="y"
     style="display:none" />
  <g
     inkscape:groupmode="layer"
     id="layer6"
     inkscape:label="t"
     style="display:none" />
  <g
     inkscape:groupmode="layer"
     id="layer7"
     inkscape:label="h"
     style="display:none" />
  <g
     inkscape:groupmode="layer"
     id="layer8"
     inkscape:label="e"
     style="display:none" />
</svg>
