<?xml version="1.0" encoding="UTF-8" standalone="no"?>
<!-- Created with Inkscape (http://www.inkscape.org/) -->

<svg
   width="21.560137mm"
   height="56.04393mm"
   viewBox="0 0 21.560137 56.043929"
   version="1.1"
   id="svg21090"
   inkscape:version="1.3 (0e150ed, 2023-07-21)"
   sodipodi:docname="scythe_s.svg"
   xmlns:inkscape="http://www.inkscape.org/namespaces/inkscape"
   xmlns:sodipodi="http://sodipodi.sourceforge.net/DTD/sodipodi-0.dtd"
   xmlns="http://www.w3.org/2000/svg"
   xmlns:svg="http://www.w3.org/2000/svg">
  <sodipodi:namedview
     id="namedview21092"
     pagecolor="#ffffff"
     bordercolor="#666666"
     borderopacity="1.0"
     inkscape:pageshadow="2"
     inkscape:pageopacity="0.0"
     inkscape:pagecheckerboard="0"
     inkscape:document-units="mm"
     showgrid="false"
     inkscape:zoom="4.3994184"
     inkscape:cx="152.06555"
     inkscape:cy="134.67689"
     inkscape:window-width="2570"
     inkscape:window-height="1562"
     inkscape:window-x="914"
     inkscape:window-y="384"
     inkscape:window-maximized="0"
     inkscape:current-layer="layer1"
     inkscape:showpageshadow="2"
     inkscape:deskcolor="#d1d1d1" />
  <defs
     id="defs21087" />
  <g
     inkscape:label="Layer 1"
     inkscape:groupmode="layer"
     id="layer1"
     transform="translate(-93.609486,-59.748674)"
     style="display:inline">
    <path
       style="display:inline;fill:#000000;fill-opacity:1;stroke:#000000;stroke-width:0.542048px;stroke-linecap:butt;stroke-linejoin:miter;stroke-opacity:1"
       d="m 95.003941,103.9795 2.580257,1.15829 4.078182,1.00884 2.76687,-0.47247 2.15712,-1.22143 1.51639,-2.43888 -0.065,-4.919232 -0.97211,-1.731585 -6.10701,-6.773131 -5.971161,-7.560513 -1.105285,-6.220932 0.267023,-2.518598 2.16291,-4.251692 5.556493,-3.383268 7.00028,-0.397468 4.24831,1.313577 -0.10023,5.033622 -5.6567,-1.748737 -5.49167,2.365198 -1.17499,2.037647 -0.22738,2.858393 3.28199,5.785214 7.94299,8.531665 1.81283,2.586066 1.39279,3.827844 -0.37726,6.92428 -1.88854,2.80675 -3.44413,2.75852 -4.19531,1.45945 -3.55394,0.48447 -6.369241,-1.67406 z"
       id="path5584-3"
       sodipodi:nodetypes="ccsccscccccccccccccccccccccccccc" />
  </g>
</svg>
